<svg width="23" height="25" viewBox="0 0 23 25" fill="none" xmlns="http://www.w3.org/2000/svg">
<g clip-path="url(#clip0_455_560)">
<path d="M4.6416 9.5L8.81908 12.5L12.9966 9.5" stroke="#9987FF" stroke-width="1.5" stroke-linecap="round" stroke-linejoin="round"/>
<path d="M15.5051 19.5H2.50851C2.0161 19.5 1.54385 19.2893 1.19566 18.9142C0.847467 18.5391 0.651855 18.0304 0.651855 17.5V7.5C0.651855 6.96957 0.847467 6.46086 1.19566 6.08579C1.54385 5.71071 2.0161 5.5 2.50851 5.5H14.5768C15.0692 5.5 15.5414 5.71071 15.8896 6.08579C16.2378 6.46086 16.4334 6.96957 16.4334 7.5V9.5" stroke="#9987FF" stroke-width="1.5" stroke-linecap="round"/>
<path d="M21.3515 14.5H15.7815M15.7815 14.5L18.5665 11.5M15.7815 14.5L18.5665 17.5" stroke="#9987FF" stroke-width="1.5" stroke-linecap="round" stroke-linejoin="round"/>
</g>
<defs>
<clipPath id="clip0_455_560">
<rect width="22.2799" height="24" fill="white" transform="translate(0 0.5)"/>
</clipPath>
</defs>
</svg>
