<svg width="24" height="29" viewBox="0 0 24 29" fill="none" xmlns="http://www.w3.org/2000/svg">
<path d="M21 9.04226C21 7.85026 21 7.25369 20.717 6.80454C20.434 6.3554 19.939 6.16683 18.949 5.78969L17.784 5.34626C16.417 4.82511 15.734 4.56454 15.045 4.67083C14.357 4.77597 13.757 5.23197 12.558 6.14511L11.176 7.19883C10.24 7.91197 9.772 8.26854 9.246 8.41026C9.05345 8.46279 8.85683 8.49342 8.659 8.50169C8.119 8.52226 7.586 8.31883 6.519 7.91197C5.121 7.3794 4.422 7.11311 3.89 7.38397C3.70147 7.47983 3.53228 7.61912 3.393 7.79311C3 8.28569 3 9.12683 3 10.8114V15.4571M21 13.4285V18.3314C21 20.016 21 20.8583 20.607 21.3485C20.4679 21.5234 20.2987 21.6634 20.11 21.76C19.578 22.0297 18.879 21.7634 17.481 21.2308C16.414 20.824 15.881 20.6205 15.341 20.6423C15.1429 20.6497 14.9459 20.6796 14.753 20.7314C14.228 20.8743 13.76 21.2308 12.824 21.9428L11.442 22.9965C10.242 23.9108 9.643 24.368 8.955 24.472C8.267 24.5783 7.583 24.3177 6.216 23.7965L5.051 23.3531C4.061 22.976 3.566 22.7874 3.283 22.3383C3.015 21.9131 3.001 21.3554 3 20.2857M15 4.85711V8.85711M15 20.2857V13.4285M9 24.2857V20.2857M9 8.85711V15.7143" stroke="white" stroke-width="1.5" stroke-linecap="round"/>
</svg>
