<svg width="24" height="25" viewBox="0 0 24 25" fill="none" xmlns="http://www.w3.org/2000/svg">
<path d="M20 17.5C20 17.7652 19.8946 18.0196 19.7071 18.2071C19.5196 18.3946 19.2652 18.5 19 18.5C18.7348 18.5 18.4804 18.3946 18.2929 18.2071C18.1054 18.0196 18 17.7652 18 17.5V5.5C18 5.23478 17.8946 4.98043 17.7071 4.79289C17.5196 4.60536 17.2652 4.5 17 4.5H3C2.73478 4.5 2.48043 4.60536 2.29289 4.79289C2.10536 4.98043 2 5.23478 2 5.5V18.5C2 19.0304 2.21071 19.5391 2.58579 19.9142C2.96086 20.2893 3.46957 20.5 4 20.5H19C20.654 20.5 22 19.154 22 17.5V7.5H20V17.5ZM12 7.5H15V9.5H12V7.5ZM12 11.5H15V13.5H12V11.5ZM5 7.5H10V13.5H5V7.5ZM5 17.5V15.5H15V17.5H5Z" fill="#9987FF"/>
</svg>
