<svg width="23" height="23" viewBox="0 0 23 23" fill="none" xmlns="http://www.w3.org/2000/svg">
<path d="M10.0624 15.8125C10.8175 15.8125 11.5652 15.6638 12.2628 15.3748C12.9605 15.0858 13.5943 14.6623 14.1283 14.1284C14.6622 13.5944 15.0858 12.9605 15.3747 12.2629C15.6637 11.5653 15.8124 10.8176 15.8124 10.0625C15.8124 9.3074 15.6637 8.55969 15.3747 7.86207C15.0858 7.16444 14.6622 6.53057 14.1283 5.99663C13.5943 5.4627 12.9605 5.03915 12.2628 4.75019C11.5652 4.46122 10.8175 4.3125 10.0624 4.3125C8.53742 4.3125 7.07488 4.9183 5.99655 5.99663C4.91821 7.07497 4.31241 8.5375 4.31241 10.0625C4.31241 11.5875 4.91821 13.05 5.99655 14.1284C7.07488 15.2067 8.53742 15.8125 10.0624 15.8125ZM16.1191 14.7641L19.5499 18.1949C19.6414 18.2834 19.7143 18.3892 19.7644 18.5061C19.8146 18.6231 19.8409 18.7489 19.842 18.8761C19.843 19.0034 19.8186 19.1295 19.7704 19.2473C19.7221 19.365 19.6509 19.472 19.5608 19.5619C19.4708 19.6518 19.3637 19.7229 19.2459 19.771C19.1281 19.8191 19.0019 19.8432 18.8746 19.842C18.7474 19.8408 18.6217 19.8143 18.5048 19.764C18.3879 19.7137 18.2822 19.6406 18.1939 19.549L14.763 16.1182C13.2225 17.3141 11.2841 17.8779 9.34247 17.6949C7.40085 17.5118 5.60195 16.5958 4.31198 15.1331C3.02201 13.6704 2.33794 11.7712 2.39903 9.82188C2.46011 7.87261 3.26176 6.01989 4.64078 4.64087C6.0198 3.26185 7.87253 2.4602 9.8218 2.39911C11.7711 2.33803 13.6704 3.0221 15.133 4.31207C16.5957 5.60203 17.5118 7.40093 17.6948 9.34255C17.8778 11.2842 17.314 13.2226 16.1181 14.7631L16.1191 14.7641Z" fill="#9987FF"/>
</svg>
