<svg width="24" height="25" viewBox="0 0 24 25" fill="none" xmlns="http://www.w3.org/2000/svg">
<path d="M14 19.1737H10C9.73478 19.1737 9.48043 19.0672 9.29289 18.8777C9.10536 18.6882 9 18.4312 9 18.1631C9 17.8951 9.10536 17.6381 9.29289 17.4486C9.48043 17.2591 9.73478 17.1526 10 17.1526H14C14.2652 17.1526 14.5196 17.2591 14.7071 17.4486C14.8946 17.6381 15 17.8951 15 18.1631C15 18.4312 14.8946 18.6882 14.7071 18.8777C14.5196 19.0672 14.2652 19.1737 14 19.1737Z" fill="#9987FF"/>
<path d="M9 11.0895C9 11.2235 8.94732 11.352 8.85355 11.4468C8.75979 11.5415 8.63261 11.5948 8.5 11.5948C8.36739 11.5948 8.24021 11.5415 8.14645 11.4468C8.05268 11.352 8 11.2235 8 11.0895C8 10.9555 8.05268 10.827 8.14645 10.7322C8.24021 10.6375 8.36739 10.5842 8.5 10.5842C8.63261 10.5842 8.75979 10.6375 8.85355 10.7322C8.94732 10.827 9 10.9555 9 11.0895Z" fill="#9987FF"/>
<path d="M9 13.1105C9 13.2445 8.94732 13.373 8.85355 13.4678C8.75979 13.5625 8.63261 13.6158 8.5 13.6158C8.36739 13.6158 8.24021 13.5625 8.14645 13.4678C8.05268 13.373 8 13.2445 8 13.1105C8 12.9765 8.05268 12.848 8.14645 12.7532C8.24021 12.6585 8.36739 12.6053 8.5 12.6053C8.63261 12.6053 8.75979 12.6585 8.85355 12.7532C8.94732 12.848 9 12.9765 9 13.1105Z" fill="#9987FF"/>
<path d="M9 15.1316C9 15.2656 8.94732 15.3941 8.85355 15.4889C8.75979 15.5836 8.63261 15.6369 8.5 15.6369C8.36739 15.6369 8.24021 15.5836 8.14645 15.4889C8.05268 15.3941 8 15.2656 8 15.1316C8 14.9976 8.05268 14.8691 8.14645 14.7743C8.24021 14.6796 8.36739 14.6263 8.5 14.6263C8.63261 14.6263 8.75979 14.6796 8.85355 14.7743C8.94732 14.8691 9 14.9976 9 15.1316Z" fill="#9987FF"/>
<path d="M3 12.6053C3 12.7393 2.94732 12.8678 2.85355 12.9625C2.75979 13.0573 2.63261 13.1105 2.5 13.1105C2.36739 13.1105 2.24021 13.0573 2.14645 12.9625C2.05268 12.8678 2 12.7393 2 12.6053C2 12.4713 2.05268 12.3427 2.14645 12.248C2.24021 12.1532 2.36739 12.1 2.5 12.1C2.63261 12.1 2.75979 12.1532 2.85355 12.248C2.94732 12.3427 3 12.4713 3 12.6053Z" fill="#9987FF"/>
<path d="M3 14.6263C3 14.7603 2.94732 14.8888 2.85355 14.9836C2.75979 15.0783 2.63261 15.1316 2.5 15.1316C2.36739 15.1316 2.24021 15.0783 2.14645 14.9836C2.05268 14.8888 2 14.7603 2 14.6263C2 14.4923 2.05268 14.3638 2.14645 14.269C2.24021 14.1743 2.36739 14.121 2.5 14.121C2.63261 14.121 2.75979 14.1743 2.85355 14.269C2.94732 14.3638 3 14.4923 3 14.6263Z" fill="#9987FF"/>
<path d="M3 16.6474C3 16.7814 2.94732 16.9099 2.85355 17.0047C2.75979 17.0994 2.63261 17.1526 2.5 17.1526C2.36739 17.1526 2.24021 17.0994 2.14645 17.0047C2.05268 16.9099 2 16.7814 2 16.6474C2 16.5134 2.05268 16.3849 2.14645 16.2901C2.24021 16.1954 2.36739 16.1421 2.5 16.1421C2.63261 16.1421 2.75979 16.1954 2.85355 16.2901C2.94732 16.3849 3 16.5134 3 16.6474Z" fill="#9987FF"/>
<path d="M15.5 11.5948H10.5C10.3674 11.5948 10.2402 11.5415 10.1464 11.4468C10.0527 11.352 10 11.2235 10 11.0895C10 10.9555 10.0527 10.827 10.1464 10.7322C10.2402 10.6375 10.3674 10.5842 10.5 10.5842H15.5C15.6326 10.5842 15.7598 10.6375 15.8536 10.7322C15.9473 10.827 16 10.9555 16 11.0895C16 11.2235 15.9473 11.352 15.8536 11.4468C15.7598 11.5415 15.6326 11.5948 15.5 11.5948Z" fill="#9987FF"/>
<path d="M15.5 13.6158H10.5C10.3674 13.6158 10.2402 13.5625 10.1464 13.4678C10.0527 13.373 10 13.2445 10 13.1105C10 12.9765 10.0527 12.848 10.1464 12.7532C10.2402 12.6585 10.3674 12.6053 10.5 12.6053H15.5C15.6326 12.6053 15.7598 12.6585 15.8536 12.7532C15.9473 12.848 16 12.9765 16 13.1105C16 13.2445 15.9473 13.373 15.8536 13.4678C15.7598 13.5625 15.6326 13.6158 15.5 13.6158Z" fill="#9987FF"/>
<path d="M15.5 15.6369H10.5C10.3674 15.6369 10.2402 15.5836 10.1464 15.4889C10.0527 15.3941 10 15.2656 10 15.1316C10 14.9976 10.0527 14.8691 10.1464 14.7743C10.2402 14.6796 10.3674 14.6263 10.5 14.6263H15.5C15.6326 14.6263 15.7598 14.6796 15.8536 14.7743C15.9473 14.8691 16 14.9976 16 15.1316C16 15.2656 15.9473 15.3941 15.8536 15.4889C15.7598 15.5836 15.6326 15.6369 15.5 15.6369Z" fill="#9987FF"/>
<path d="M15.5 5.02634H8.5C8.22386 5.02634 8 5.25255 8 5.5316V8.56318C8 8.84223 8.22386 9.06844 8.5 9.06844H15.5C15.7761 9.06844 16 8.84223 16 8.56318V5.5316C16 5.25255 15.7761 5.02634 15.5 5.02634Z" fill="#9987FF"/>
<path d="M21.5 6.54211H18C17.7239 6.54211 17.5 6.76833 17.5 7.04738V10.079C17.5 10.358 17.7239 10.5842 18 10.5842H21.5C21.7761 10.5842 22 10.358 22 10.079V7.04738C22 6.76833 21.7761 6.54211 21.5 6.54211Z" fill="#9987FF"/>
<path d="M6 6.54211H2.5C2.22386 6.54211 2 6.76833 2 7.04738V10.079C2 10.358 2.22386 10.5842 2.5 10.5842H6C6.27614 10.5842 6.5 10.358 6.5 10.079V7.04738C6.5 6.76833 6.27614 6.54211 6 6.54211Z" fill="#9987FF"/>
<path d="M22.5 4.01579H18.5C18.5 3.61378 18.342 3.22823 18.0607 2.94396C17.7794 2.6597 17.3978 2.5 17 2.5H7C6.60218 2.5 6.22064 2.6597 5.93934 2.94396C5.65804 3.22823 5.5 3.61378 5.5 4.01579H1.5C1.10218 4.01579 0.720644 4.17549 0.43934 4.45975C0.158035 4.74402 0 5.12957 0 5.53158L0 18.6684C0 19.0704 0.158035 19.456 0.43934 19.7402C0.720644 20.0245 1.10218 20.1842 1.5 20.1842H5.5C5.5 20.5862 5.65804 20.9718 5.93934 21.256C6.22064 21.5403 6.60218 21.7 7 21.7H17C17.3978 21.7 17.7794 21.5403 18.0607 21.256C18.342 20.9718 18.5 20.5862 18.5 20.1842H22.5C22.8978 20.1842 23.2794 20.0245 23.5607 19.7402C23.842 19.456 24 19.0704 24 18.6684V5.53158C24 5.12957 23.842 4.74402 23.5607 4.45975C23.2794 4.17549 22.8978 4.01579 22.5 4.01579ZM1.5 19.1737C1.36739 19.1737 1.24021 19.1205 1.14645 19.0257C1.05268 18.9309 1 18.8024 1 18.6684V5.53158C1 5.39757 1.05268 5.26906 1.14645 5.1743C1.24021 5.07955 1.36739 5.02632 1.5 5.02632H5.5V12.1H4.5C4.36739 12.1 4.24021 12.1532 4.14645 12.248C4.05268 12.3427 4 12.4713 4 12.6053C4 12.7393 4.05268 12.8678 4.14645 12.9625C4.24021 13.0573 4.36739 13.1105 4.5 13.1105H5.5V14.1211H4.5C4.36739 14.1211 4.24021 14.1743 4.14645 14.269C4.05268 14.3638 4 14.4923 4 14.6263C4 14.7603 4.05268 14.8888 4.14645 14.9836C4.24021 15.0783 4.36739 15.1316 4.5 15.1316H5.5V16.1421H4.5C4.36739 16.1421 4.24021 16.1953 4.14645 16.2901C4.05268 16.3848 4 16.5134 4 16.6474C4 16.7814 4.05268 16.9099 4.14645 17.0046C4.24021 17.0994 4.36739 17.1526 4.5 17.1526H5.5V19.1737H1.5ZM17.5 20.1842C17.5 20.3182 17.4473 20.4467 17.3536 20.5415C17.2598 20.6362 17.1326 20.6895 17 20.6895H7C6.86739 20.6895 6.74021 20.6362 6.64645 20.5415C6.55268 20.4467 6.5 20.3182 6.5 20.1842V4.01579C6.5 3.88179 6.55268 3.75327 6.64645 3.65851C6.74021 3.56376 6.86739 3.51053 7 3.51053H17C17.1326 3.51053 17.2598 3.56376 17.3536 3.65851C17.4473 3.75327 17.5 3.88179 17.5 4.01579V20.1842ZM23 18.6684C23 18.8024 22.9473 18.9309 22.8536 19.0257C22.7598 19.1205 22.6326 19.1737 22.5 19.1737H18.5V17.1526H21.5C21.6326 17.1526 21.7598 17.0994 21.8536 17.0046C21.9473 16.9099 22 16.7814 22 16.6474C22 16.5134 21.9473 16.3848 21.8536 16.2901C21.7598 16.1953 21.6326 16.1421 21.5 16.1421H18.5V15.1316H21.5C21.6326 15.1316 21.7598 15.0783 21.8536 14.9836C21.9473 14.8888 22 14.7603 22 14.6263C22 14.4923 21.9473 14.3638 21.8536 14.269C21.7598 14.1743 21.6326 14.1211 21.5 14.1211H18.5V13.1105H21.5C21.6326 13.1105 21.7598 13.0573 21.8536 12.9625C21.9473 12.8678 22 12.7393 22 12.6053C22 12.4713 21.9473 12.3427 21.8536 12.248C21.7598 12.1532 21.6326 12.1 21.5 12.1H18.5V5.02632H22.5C22.6326 5.02632 22.7598 5.07955 22.8536 5.1743C22.9473 5.26906 23 5.39757 23 5.53158V18.6684Z" fill="#9987FF"/>
</svg>
