<svg width="24" height="25" viewBox="0 0 24 25" fill="none" xmlns="http://www.w3.org/2000/svg">
<path d="M12 10.5C14.2091 10.5 16 8.70914 16 6.5C16 4.29086 14.2091 2.5 12 2.5C9.79086 2.5 8 4.29086 8 6.5C8 8.70914 9.79086 10.5 12 10.5Z" stroke="#9987FF" stroke-width="1.5"/>
<path d="M19.997 18.5C20 18.336 20 18.169 20 18C20 15.515 16.418 13.5 12 13.5C7.582 13.5 4 15.515 4 18C4 20.485 4 22.5 12 22.5C14.231 22.5 15.84 22.343 17 22.063" stroke="#9987FF" stroke-width="1.5" stroke-linecap="round"/>
</svg>
