<svg width="47" height="37" viewBox="0 0 47 37" fill="none" xmlns="http://www.w3.org/2000/svg">
<g clip-path="url(#clip0_432_403)">
<path d="M45.6514 16.2602C45.6522 16.352 45.6242 16.4417 45.5716 16.5169C45.519 16.5921 45.4442 16.6491 45.3577 16.6798L43.5831 17.3252L42.938 19.0995C42.9062 19.1852 42.8489 19.2591 42.7739 19.3112C42.6989 19.3634 42.6097 19.3914 42.5184 19.3914C42.427 19.3914 42.3378 19.3634 42.2628 19.3112C42.1878 19.2591 42.1306 19.1852 42.0988 19.0995L41.4534 17.3232L39.679 16.6798C39.5934 16.648 39.5195 16.5908 39.4673 16.5158C39.4152 16.4407 39.3872 16.3516 39.3872 16.2602C39.3872 16.1688 39.4152 16.0797 39.4673 16.0046C39.5195 15.9296 39.5934 15.8724 39.679 15.8406L41.4554 15.1952L42.0988 13.4209C42.1306 13.3352 42.1878 13.2613 42.2628 13.2092C42.3378 13.157 42.427 13.129 42.5184 13.129C42.6097 13.129 42.6989 13.157 42.7739 13.2092C42.8489 13.2613 42.9062 13.3352 42.938 13.4209L43.5833 15.1972L45.3577 15.8406C45.4442 15.8713 45.519 15.9283 45.5716 16.0035C45.6242 16.0787 45.6522 16.1684 45.6514 16.2602Z" fill="#9987FF"/>
</g>
<g clip-path="url(#clip1_432_403)">
<path d="M29.2406 10.4423C29.2411 10.5035 29.2225 10.5633 29.1874 10.6134C29.1523 10.6636 29.1025 10.7015 29.0448 10.722L27.8617 11.1523L27.4316 12.3352C27.4104 12.3923 27.3723 12.4415 27.3223 12.4763C27.2723 12.5111 27.2128 12.5297 27.1519 12.5297C27.091 12.5297 27.0315 12.5111 26.9815 12.4763C26.9315 12.4415 26.8934 12.3923 26.8722 12.3352L26.4419 11.151L25.259 10.722C25.2019 10.7008 25.1527 10.6627 25.1179 10.6127C25.0831 10.5626 25.0645 10.5032 25.0645 10.4423C25.0645 10.3814 25.0831 10.3219 25.1179 10.2719C25.1527 10.2219 25.2019 10.1837 25.259 10.1625L26.4432 9.73231L26.8722 8.54939C26.8934 8.49228 26.9315 8.44303 26.9815 8.40826C27.0315 8.37348 27.091 8.35484 27.1519 8.35484C27.2128 8.35484 27.2723 8.37348 27.3223 8.40826C27.3723 8.44303 27.4104 8.49228 27.4316 8.54939L27.8619 9.73361L29.0448 10.1625C29.1025 10.183 29.1523 10.221 29.1874 10.2711C29.2225 10.3213 29.2411 10.3811 29.2406 10.4423Z" fill="#9987FF"/>
</g>
<g clip-path="url(#clip2_432_403)">
<path d="M11.6035 24.2044C11.5504 24.1656 11.5885 24.0606 11.6537 24.0658C11.9613 24.0877 12.4326 24.0904 12.7441 23.9452C13.0548 23.8002 13.3561 23.4378 13.537 23.1883C13.5758 23.1352 13.6803 23.1729 13.6756 23.2385C13.6537 23.5461 13.651 24.0173 13.7957 24.3285C13.9407 24.6392 14.3036 24.9409 14.5531 25.1218C14.6062 25.1605 14.5676 25.2653 14.5024 25.26C14.1948 25.2382 13.7241 25.2358 13.4129 25.3805C13.1017 25.5252 12.8005 25.8883 12.6196 26.1379C12.5809 26.191 12.4761 26.1524 12.4814 26.0872C12.5032 25.7796 12.5056 25.3088 12.3604 24.9973C12.2157 24.6861 11.8526 24.3849 11.6035 24.2044ZM13.8118 19.7869C13.7544 19.7546 13.6683 19.835 13.6963 19.8943C13.7804 20.0731 13.8676 20.309 13.8613 20.5024C13.855 20.6957 13.7505 20.925 13.6547 21.0978C13.6225 21.1552 13.7032 21.2408 13.7622 21.2133C13.941 21.1291 14.1767 21.0411 14.3703 21.0482C14.5636 21.0545 14.7932 21.1586 14.9656 21.2548C15.0233 21.2866 15.1087 21.2063 15.081 21.1465C14.9973 20.968 14.9093 20.7323 14.9164 20.5388C14.9227 20.3454 15.0264 20.1163 15.1227 19.9439C15.1544 19.8862 15.0745 19.8004 15.0147 19.8281C14.8359 19.9122 14.6002 20.0002 14.4066 19.9931C14.2133 19.9868 13.9845 19.8826 13.8118 19.7869ZM6.83471 17.8798L6.60273 17.8994C5.70539 17.976 5.25663 18.0139 5.12041 18.3138C4.98469 18.614 5.25105 18.9771 5.7846 19.7031L5.9226 19.8903C6.07407 20.0972 6.14973 20.2003 6.17693 20.3192C6.20348 20.4391 6.17823 20.5605 6.12757 20.8046L6.08146 21.0267L6.04954 21.1831C5.89315 21.9384 5.83006 22.3289 6.06845 22.5417C6.3226 22.7687 6.75187 22.6434 7.6099 22.3926L7.83181 22.3277C8.07571 22.2565 8.19807 22.2209 8.32143 22.2367C8.44546 22.2515 8.55723 22.3162 8.7811 22.445L8.98458 22.5625C9.77163 23.0169 10.1653 23.2438 10.4584 23.0843C10.7515 22.9248 10.7502 22.4845 10.7471 21.6036L10.7464 21.3756C10.7457 21.1246 10.7448 20.9995 10.7949 20.8903C10.8449 20.7802 10.9393 20.6981 11.1281 20.534L11.3 20.3844C11.9645 19.8066 12.2967 19.5176 12.2236 19.1923C12.1509 18.8665 11.7209 18.7193 10.8607 18.4262L10.6385 18.3499C10.3938 18.2667 10.272 18.2247 10.1788 18.1416C10.0857 18.0585 10.032 17.9428 9.92484 17.7123L9.82749 17.5025C9.45139 16.6911 9.26334 16.2854 8.92456 16.2436C8.5871 16.2021 8.32227 16.5514 7.79378 17.2514L7.657 17.4321C7.50671 17.6311 7.43173 17.7303 7.32434 17.7888C7.21728 17.8467 7.08954 17.8581 6.83471 17.8798ZM9.54158 23.8716C9.35723 25.2789 9.59436 26.709 10.3567 27.6938C7.76659 26.5176 6.59764 24.9968 6.20815 23.5417C6.40238 23.5672 6.58573 23.554 6.73612 23.5333C7.04847 23.4896 7.42482 23.3794 7.80729 23.2676L8.08244 23.187L8.21059 23.1502C8.24409 23.1688 8.28355 23.1913 8.33347 23.2208L8.58471 23.3656C8.92384 23.5615 9.25501 23.752 9.54158 23.8716Z" fill="#9987FF"/>
</g>
<g clip-path="url(#clip3_432_403)">
<path d="M36.4031 1.64113L37.6887 4.7921L41.0858 5.04374L38.4819 7.24285L39.297 10.547L36.4031 8.75269L33.5093 10.547L34.3244 7.24285L31.7205 5.04374L35.1176 4.7921L36.4031 1.64113Z" fill="#9987FF" stroke="#9987FF" stroke-width="2" stroke-linecap="round" stroke-linejoin="round"/>
</g>
<path d="M29.7209 27.79C34.7395 23.3338 38.6279 17.4793 36.3478 14.9115C35.6246 14.0975 34.6148 13.72 33.5305 13.836C32.6203 13.9356 31.6848 14.3852 30.7417 15.1402C29.2592 14.3721 27.6044 13.9972 25.9356 14.0512C24.2668 14.1052 22.6398 14.5864 21.21 15.4487C20.0986 16.1068 19.1288 16.979 18.3571 18.0148C17.5854 19.0506 17.027 20.2293 16.7144 21.4826C16.2272 23.4131 16.3441 25.4466 17.0492 27.3086C15.884 28.6248 14.802 31.3315 16.1488 32.8479C16.7144 33.4836 17.5241 33.7681 18.4978 33.7681C21.4595 33.7681 25.9463 31.1434 29.7209 27.79ZM33.768 16.01C34.1596 15.9728 34.4594 16.08 34.71 16.3634C34.9627 16.6489 34.8949 17.3984 34.4343 18.4738C33.9394 17.7208 33.3442 17.0387 32.6651 16.4465C33.1367 16.1599 33.5141 16.0384 33.768 16.01ZM18.198 29.4705C18.6845 30.1761 19.2613 30.815 19.9135 31.3709C18.7921 31.7024 18.0383 31.6806 17.7855 31.3939C17.5481 31.128 17.7877 30.2243 18.198 29.4705ZM36.0426 23.0493C34.7132 25.0154 32.8631 27.0657 30.815 28.8841C28.6991 30.7648 26.3665 32.3939 24.1958 33.4814C24.8693 33.6297 25.5565 33.7074 26.2461 33.7134C28.0255 33.7115 29.7709 33.2267 31.2964 32.3108C32.8812 31.3726 34.1679 30.0049 35.0078 28.3659C35.8478 26.7269 36.2065 24.8836 36.0426 23.0493Z" fill="#9987FF"/>
<defs>
<clipPath id="clip0_432_403">
<rect width="7.16129" height="7.16129" fill="white" transform="translate(39.3872 13.129)"/>
</clipPath>
<clipPath id="clip1_432_403">
<rect width="4.77419" height="4.77419" fill="white" transform="translate(25.0645 8.35484)"/>
</clipPath>
<clipPath id="clip2_432_403">
<rect width="14.3226" height="14.3226" fill="white" transform="translate(0 23.8789) rotate(-56.5)"/>
</clipPath>
<clipPath id="clip3_432_403">
<rect width="13.129" height="13.129" fill="white" transform="translate(29.8386)"/>
</clipPath>
</defs>
</svg>
