<svg width="76" height="29" viewBox="0 0 76 29" fill="none" xmlns="http://www.w3.org/2000/svg">
<g clip-path="url(#clip0_432_388)">
<path d="M35.3064 12.5755C35.3069 12.6464 35.2853 12.7158 35.2446 12.774C35.2039 12.8322 35.1461 12.8762 35.0792 12.9L33.7067 13.3991L33.2078 14.7714C33.1832 14.8376 33.1389 14.8948 33.0809 14.9351C33.0229 14.9754 32.9539 14.9971 32.8833 14.9971C32.8126 14.9971 32.7436 14.9754 32.6856 14.9351C32.6276 14.8948 32.5834 14.8376 32.5588 14.7714L32.0597 13.3976L30.6874 12.9C30.6211 12.8754 30.564 12.8311 30.5236 12.7731C30.4833 12.7151 30.4617 12.6461 30.4617 12.5755C30.4617 12.5048 30.4833 12.4358 30.5236 12.3778C30.564 12.3198 30.6211 12.2755 30.6874 12.2509L32.0612 11.7518L32.5588 10.3795C32.5834 10.3133 32.6276 10.2562 32.6856 10.2158C32.7436 10.1755 32.8126 10.1538 32.8833 10.1538C32.9539 10.1538 33.0229 10.1755 33.0809 10.2158C33.1389 10.2562 33.1832 10.3133 33.2078 10.3795L33.7069 11.7533L35.0792 12.2509C35.1461 12.2747 35.2039 12.3188 35.2446 12.3769C35.2853 12.4351 35.3069 12.5045 35.3064 12.5755Z" fill="#9987FF"/>
</g>
<g clip-path="url(#clip1_432_388)">
<path d="M22.6143 8.07595C22.6147 8.12327 22.6003 8.16954 22.5732 8.20831C22.546 8.24709 22.5075 8.27644 22.4629 8.29229L21.5479 8.62504L21.2153 9.53989C21.1989 9.58405 21.1694 9.62214 21.1307 9.64904C21.092 9.67594 21.046 9.69036 20.9989 9.69036C20.9518 9.69036 20.9058 9.67594 20.8672 9.64904C20.8285 9.62214 20.799 9.58405 20.7826 9.53989L20.4498 8.62403L19.535 8.29229C19.4908 8.2759 19.4527 8.24638 19.4258 8.20771C19.3989 8.16904 19.3845 8.12306 19.3845 8.07595C19.3845 8.02884 19.3989 7.98286 19.4258 7.94419C19.4527 7.90551 19.4908 7.87599 19.535 7.8596L20.4509 7.52686L20.7826 6.61201C20.799 6.56784 20.8285 6.52975 20.8672 6.50285C20.9058 6.47596 20.9518 6.46154 20.9989 6.46154C21.046 6.46154 21.092 6.47596 21.1307 6.50285C21.1694 6.52975 21.1989 6.56784 21.2153 6.61201L21.548 7.52787L22.4629 7.8596C22.5075 7.87546 22.546 7.90481 22.5732 7.94358C22.6003 7.98236 22.6147 8.02862 22.6143 8.07595Z" fill="#9987FF"/>
</g>
<g clip-path="url(#clip2_432_388)">
<path d="M8.97415 18.7194C8.93309 18.6894 8.96252 18.6082 9.01297 18.6122C9.25087 18.6291 9.61531 18.6312 9.85624 18.5189C10.0965 18.4068 10.3296 18.1266 10.4695 17.9336C10.4994 17.8925 10.5803 17.9217 10.5766 17.9724C10.5598 18.2103 10.5577 18.5747 10.6696 18.8154C10.7817 19.0557 11.0623 19.289 11.2553 19.4289C11.2964 19.4589 11.2666 19.5399 11.2161 19.5358C10.9782 19.5189 10.6142 19.5171 10.3735 19.629C10.1328 19.7409 9.89988 20.0217 9.75997 20.2147C9.73002 20.2558 9.64902 20.226 9.65308 20.1755C9.66995 19.9376 9.67182 19.5736 9.55952 19.3327C9.44761 19.092 9.16676 18.859 8.97415 18.7194ZM10.682 15.3029C10.6376 15.278 10.571 15.3402 10.5926 15.3861C10.6577 15.5243 10.7252 15.7068 10.7203 15.8563C10.7154 16.0058 10.6346 16.1831 10.5605 16.3168C10.5356 16.3612 10.598 16.4274 10.6436 16.4061C10.7819 16.341 10.9643 16.2729 11.1139 16.2785C11.2634 16.2833 11.441 16.3638 11.5744 16.4382C11.619 16.4628 11.685 16.4007 11.6636 16.3545C11.5989 16.2164 11.5308 16.0341 11.5363 15.8845C11.5412 15.7349 11.6214 15.5578 11.6958 15.4244C11.7204 15.3797 11.6586 15.3134 11.6123 15.3348C11.474 15.3999 11.2917 15.468 11.1421 15.4624C10.9925 15.4576 10.8156 15.377 10.682 15.3029ZM5.28601 13.828L5.10659 13.8432C4.41259 13.9025 4.06553 13.9318 3.96018 14.1637C3.85522 14.3959 4.06122 14.6767 4.47386 15.2381L4.58059 15.383C4.69773 15.543 4.75624 15.6226 4.77729 15.7146C4.79782 15.8073 4.77829 15.9012 4.7391 16.0901L4.70345 16.2618L4.67876 16.3828C4.55781 16.9669 4.50902 17.2689 4.69338 17.4335C4.88994 17.609 5.22193 17.5122 5.88553 17.3182L6.05715 17.268C6.24578 17.2129 6.34041 17.1854 6.43582 17.1976C6.53173 17.2091 6.61818 17.2591 6.79132 17.3587L6.94869 17.4496C7.55738 17.801 7.86186 17.9765 8.08853 17.8531C8.31521 17.7298 8.31421 17.3893 8.31182 16.708L8.31124 16.5316C8.31072 16.3376 8.31002 16.2408 8.34878 16.1563C8.38741 16.0712 8.46042 16.0077 8.60644 15.8807L8.73944 15.7651C9.25332 15.3182 9.51026 15.0947 9.45374 14.8431C9.39748 14.5911 9.06492 14.4773 8.39968 14.2506L8.22782 14.1916C8.03854 14.1272 7.94435 14.0948 7.87232 14.0305C7.80029 13.9662 7.75878 13.8768 7.67588 13.6985L7.60058 13.5363C7.30971 12.9087 7.16428 12.5949 6.90227 12.5626C6.64128 12.5305 6.43647 12.8006 6.02774 13.342L5.92196 13.4818C5.80572 13.6357 5.74773 13.7124 5.66468 13.7576C5.58188 13.8024 5.48308 13.8112 5.28601 13.828ZM7.37947 18.462C7.23689 19.5504 7.42028 20.6564 8.00986 21.4181C6.00671 20.5084 5.10265 19.3322 4.80143 18.2069C4.95165 18.2266 5.09344 18.2164 5.20975 18.2004C5.45132 18.1666 5.74238 18.0814 6.03818 17.9949L6.25098 17.9326L6.35009 17.9041C6.376 17.9185 6.40652 17.9359 6.44513 17.9587L6.63943 18.0707C6.90171 18.2222 7.15783 18.3695 7.37947 18.462Z" fill="#9987FF"/>
</g>
<g clip-path="url(#clip3_432_388)">
<path d="M28.1538 1.26923L29.148 3.70616L31.7753 3.90077L29.7615 5.60154L30.3918 8.15693L28.1538 6.76924L25.9157 8.15693L26.5461 5.60154L24.5322 3.90077L27.1595 3.70616L28.1538 1.26923Z" fill="#9987FF" stroke="#9987FF" stroke-width="2" stroke-linecap="round" stroke-linejoin="round"/>
</g>
<path d="M22.9858 21.4925C26.8671 18.0461 29.8744 13.5183 28.111 11.5324C27.5517 10.9029 26.7707 10.6109 25.9321 10.7006C25.2281 10.7776 24.5047 11.1254 23.7753 11.7092C22.6287 11.1152 21.349 10.8253 20.0583 10.867C18.7677 10.9088 17.5094 11.2809 16.4036 11.9479C15.544 12.4568 14.794 13.1314 14.1972 13.9324C13.6003 14.7335 13.1685 15.6451 12.9268 16.6144C12.55 18.1074 12.6403 19.6801 13.1857 21.1202C12.2845 22.1381 11.4477 24.2315 12.4893 25.4042C12.9268 25.8959 13.5529 26.1159 14.306 26.1159C16.5965 26.1159 20.0666 24.0859 22.9858 21.4925ZM26.1158 12.3819C26.4187 12.3532 26.6505 12.4361 26.8443 12.6552C27.0398 12.8761 26.9873 13.4557 26.6311 14.2875C26.2484 13.7051 25.7881 13.1776 25.2628 12.7195C25.6275 12.4979 25.9195 12.4039 26.1158 12.3819ZM14.0741 22.7922C14.4504 23.3379 14.8964 23.832 15.4009 24.2619C14.5336 24.5183 13.9506 24.5014 13.7551 24.2797C13.5715 24.0741 13.7568 23.3752 14.0741 22.7922ZM27.8749 17.8261C26.8468 19.3466 25.416 20.9323 23.832 22.3386C22.1955 23.7932 20.3915 25.0531 18.7128 25.8942C19.2337 26.0088 19.7651 26.0689 20.2985 26.0736C21.6746 26.0721 23.0245 25.6972 24.2043 24.9888C25.4299 24.2632 26.4251 23.2054 27.0747 21.9379C27.7243 20.6703 28.0017 19.2447 27.8749 17.8261Z" fill="#9987FF"/>
<path d="M43.7833 18.296C43.6019 18.296 43.4579 18.2267 43.3513 18.088C43.2553 17.9387 43.2073 17.7413 43.2073 17.496C43.2073 16.952 43.4313 16.68 43.8793 16.68H45.5753C45.9699 16.68 46.2473 16.568 46.4073 16.344C46.5779 16.12 46.6633 15.8747 46.6633 15.608V12.984C46.6633 12.7173 46.5779 12.472 46.4073 12.248C46.2473 12.024 45.9699 11.912 45.5753 11.912H42.2153V22.36C42.2153 22.872 41.8953 23.128 41.2553 23.128C40.6366 23.128 40.3273 22.872 40.3273 22.36V11.256C40.3273 10.872 40.4233 10.616 40.6153 10.488C40.8073 10.36 41.0419 10.296 41.3193 10.296H45.9913C46.2579 10.296 46.5406 10.3547 46.8393 10.472C47.1379 10.5893 47.4259 10.7387 47.7033 10.92H47.6873C47.9646 11.1227 48.1779 11.3893 48.3273 11.72C48.4766 12.04 48.5513 12.4133 48.5513 12.84V15.736C48.5513 16.6 48.2633 17.2453 47.6873 17.672C47.4099 17.8747 47.1273 18.0293 46.8393 18.136C46.5513 18.2427 46.2686 18.296 45.9913 18.296H43.7833ZM52.6631 22.376C52.6631 22.8773 52.3698 23.128 51.7831 23.128C51.1858 23.128 50.8871 22.8773 50.8871 22.376V10.904C50.8871 10.4027 51.1858 10.152 51.7831 10.152C52.3698 10.152 52.6631 10.4027 52.6631 10.904V22.376ZM57.2864 23C56.9557 23 56.641 22.9573 56.3424 22.872C56.0437 22.776 55.7557 22.6427 55.4784 22.472V22.488C54.9557 22.1573 54.6944 21.5493 54.6944 20.664V19.88C54.6944 19.4427 54.769 19.064 54.9184 18.744C55.0784 18.4133 55.297 18.152 55.5744 17.96H55.5584C55.825 17.7787 56.1077 17.6453 56.4064 17.56C56.705 17.464 56.993 17.416 57.2704 17.416H60.8064V15.928C60.8064 15.6613 60.721 15.4213 60.5504 15.208C60.3904 14.984 60.113 14.872 59.7184 14.872H57.8464C57.441 14.872 57.1584 14.9733 56.9984 15.176C56.849 15.368 56.7744 15.5973 56.7744 15.864V15.992C56.7744 16.5467 56.4757 16.824 55.8784 16.824C55.281 16.824 54.9824 16.5467 54.9824 15.992V15.848C54.9824 15.4107 55.057 15.0427 55.2064 14.744C55.3664 14.4453 55.5797 14.1947 55.8464 13.992H55.8304C56.1077 13.8107 56.3957 13.6613 56.6944 13.544C57.0037 13.4267 57.297 13.368 57.5744 13.368H60.0064C60.273 13.368 60.5557 13.4267 60.8544 13.544C61.1637 13.6613 61.4517 13.8107 61.7184 13.992H61.7024C61.9797 14.1947 62.193 14.4613 62.3424 14.792C62.4917 15.112 62.5664 15.4853 62.5664 15.912V22.328C62.5664 22.84 62.273 23.096 61.6864 23.096C61.569 23.096 61.457 23.0907 61.3504 23.08C61.2544 23.0693 61.1637 23.0427 61.0784 23C61.0037 22.9467 60.9397 22.8773 60.8864 22.792C60.8437 22.696 60.8224 22.5733 60.8224 22.424L60.8064 18.92H57.5744C57.3397 18.92 57.1584 18.9467 57.0304 19C56.9024 19.0533 56.801 19.1387 56.7264 19.256C56.641 19.4373 56.577 19.5813 56.5344 19.688C56.5024 19.784 56.4864 19.896 56.4864 20.024V20.648C56.4864 20.9253 56.5664 21.1387 56.7264 21.288C56.897 21.4267 57.185 21.496 57.5904 21.496H59.3824C59.777 21.496 59.9744 21.7467 59.9744 22.248C59.9744 22.4613 59.9264 22.6427 59.8304 22.792C59.7344 22.9307 59.585 23 59.3824 23H57.2864ZM65.148 25.24C64.7747 25.24 64.5773 24.9893 64.556 24.488C64.556 23.9867 64.7533 23.736 65.148 23.736H65.852C66.2253 23.736 66.4707 23.624 66.588 23.4L66.812 22.808L66.892 22.552L63.772 14.376V14.392C63.6867 14.136 63.7027 13.9173 63.82 13.736C63.948 13.5547 64.14 13.4213 64.396 13.336C64.588 13.2827 64.7427 13.256 64.86 13.256C65.1693 13.256 65.3613 13.4373 65.436 13.8L66.7 16.952L67.772 19.576L69.484 13.832C69.58 13.448 69.804 13.256 70.156 13.256C70.2413 13.256 70.38 13.2827 70.572 13.336C70.828 13.4107 71.0093 13.5333 71.116 13.704C71.2333 13.8747 71.26 14.0773 71.196 14.312C70.716 15.944 70.2253 17.5867 69.724 19.24C69.2333 20.8933 68.748 22.5307 68.268 24.152C68.2147 24.2693 68.1293 24.3867 68.012 24.504C67.9053 24.632 67.7613 24.7493 67.58 24.856C67.3987 24.9733 67.1747 25.064 66.908 25.128C66.6413 25.2027 66.332 25.24 65.98 25.24H65.148ZM74.9899 21.688C74.9899 22.0507 74.8672 22.36 74.6219 22.616C74.3765 22.8613 74.0725 22.984 73.7099 22.984C73.3472 22.984 73.0432 22.8613 72.7979 22.616C72.5525 22.36 72.4299 22.0507 72.4299 21.688C72.4299 21.336 72.5525 21.0373 72.7979 20.792C73.0432 20.536 73.3472 20.408 73.7099 20.408C74.0725 20.408 74.3765 20.536 74.6219 20.792C74.8672 21.0373 74.9899 21.336 74.9899 21.688Z" fill="#9987FF"/>
<defs>
<clipPath id="clip0_432_388">
<rect width="5.53846" height="5.53846" fill="white" transform="translate(30.4617 10.1538)"/>
</clipPath>
<clipPath id="clip1_432_388">
<rect width="3.69231" height="3.69231" fill="white" transform="translate(19.3845 6.46154)"/>
</clipPath>
<clipPath id="clip2_432_388">
<rect width="11.0769" height="11.0769" fill="white" transform="translate(0 18.4677) rotate(-56.5)"/>
</clipPath>
<clipPath id="clip3_432_388">
<rect width="10.1538" height="10.1538" fill="white" transform="translate(23.0769)"/>
</clipPath>
</defs>
</svg>
