<svg width="123" height="29" viewBox="0 0 123 29" fill="none" xmlns="http://www.w3.org/2000/svg">
<g clip-path="url(#clip0_432_373)">
<path d="M35.3064 12.5755C35.3069 12.6464 35.2853 12.7158 35.2446 12.774C35.2039 12.8322 35.1461 12.8762 35.0792 12.9L33.7067 13.3991L33.2078 14.7714C33.1832 14.8376 33.1389 14.8948 33.0809 14.9351C33.0229 14.9754 32.9539 14.9971 32.8833 14.9971C32.8126 14.9971 32.7436 14.9754 32.6856 14.9351C32.6276 14.8948 32.5834 14.8376 32.5588 14.7714L32.0597 13.3976L30.6874 12.9C30.6211 12.8754 30.564 12.8311 30.5236 12.7731C30.4833 12.7151 30.4617 12.6461 30.4617 12.5755C30.4617 12.5048 30.4833 12.4358 30.5236 12.3778C30.564 12.3198 30.6211 12.2755 30.6874 12.2509L32.0612 11.7518L32.5588 10.3795C32.5834 10.3133 32.6276 10.2562 32.6856 10.2158C32.7436 10.1755 32.8126 10.1538 32.8833 10.1538C32.9539 10.1538 33.0229 10.1755 33.0809 10.2158C33.1389 10.2562 33.1832 10.3133 33.2078 10.3795L33.7069 11.7533L35.0792 12.2509C35.1461 12.2747 35.2039 12.3188 35.2446 12.3769C35.2853 12.4351 35.3069 12.5045 35.3064 12.5755Z" fill="#9987FF"/>
</g>
<g clip-path="url(#clip1_432_373)">
<path d="M22.6143 8.07595C22.6147 8.12327 22.6003 8.16954 22.5732 8.20831C22.546 8.24709 22.5075 8.27644 22.4629 8.29229L21.5479 8.62504L21.2153 9.53989C21.1989 9.58405 21.1694 9.62214 21.1307 9.64904C21.092 9.67594 21.046 9.69036 20.9989 9.69036C20.9518 9.69036 20.9058 9.67594 20.8672 9.64904C20.8285 9.62214 20.799 9.58405 20.7826 9.53989L20.4498 8.62403L19.535 8.29229C19.4908 8.2759 19.4527 8.24638 19.4258 8.20771C19.3989 8.16904 19.3845 8.12306 19.3845 8.07595C19.3845 8.02884 19.3989 7.98286 19.4258 7.94419C19.4527 7.90551 19.4908 7.87599 19.535 7.8596L20.4509 7.52686L20.7826 6.61201C20.799 6.56784 20.8285 6.52975 20.8672 6.50285C20.9058 6.47596 20.9518 6.46154 20.9989 6.46154C21.046 6.46154 21.092 6.47596 21.1307 6.50285C21.1694 6.52975 21.1989 6.56784 21.2153 6.61201L21.548 7.52787L22.4629 7.8596C22.5075 7.87546 22.546 7.90481 22.5732 7.94358C22.6003 7.98236 22.6147 8.02862 22.6143 8.07595Z" fill="#9987FF"/>
</g>
<g clip-path="url(#clip2_432_373)">
<path d="M8.97415 18.7194C8.93309 18.6894 8.96252 18.6082 9.01297 18.6122C9.25087 18.6291 9.61531 18.6312 9.85624 18.5189C10.0965 18.4068 10.3296 18.1266 10.4695 17.9336C10.4994 17.8925 10.5803 17.9217 10.5766 17.9724C10.5598 18.2103 10.5577 18.5747 10.6696 18.8154C10.7817 19.0557 11.0623 19.289 11.2553 19.4289C11.2964 19.4589 11.2666 19.5399 11.2161 19.5358C10.9782 19.5189 10.6142 19.5171 10.3735 19.629C10.1328 19.7409 9.89988 20.0217 9.75997 20.2147C9.73002 20.2558 9.64902 20.226 9.65308 20.1755C9.66995 19.9376 9.67182 19.5736 9.55952 19.3327C9.44761 19.092 9.16676 18.859 8.97415 18.7194ZM10.682 15.3029C10.6376 15.278 10.571 15.3402 10.5926 15.3861C10.6577 15.5243 10.7252 15.7068 10.7203 15.8563C10.7154 16.0058 10.6346 16.1831 10.5605 16.3168C10.5356 16.3612 10.598 16.4274 10.6436 16.4061C10.7819 16.341 10.9643 16.2729 11.1139 16.2785C11.2634 16.2833 11.441 16.3638 11.5744 16.4382C11.619 16.4628 11.685 16.4007 11.6636 16.3545C11.5989 16.2164 11.5308 16.0341 11.5363 15.8845C11.5412 15.7349 11.6214 15.5578 11.6958 15.4244C11.7204 15.3797 11.6586 15.3134 11.6123 15.3348C11.474 15.3999 11.2917 15.468 11.1421 15.4624C10.9925 15.4576 10.8156 15.377 10.682 15.3029ZM5.28601 13.828L5.10659 13.8432C4.41259 13.9025 4.06553 13.9318 3.96018 14.1637C3.85522 14.3959 4.06122 14.6767 4.47386 15.2381L4.58059 15.383C4.69773 15.543 4.75624 15.6226 4.77729 15.7146C4.79782 15.8073 4.77829 15.9012 4.7391 16.0901L4.70345 16.2618L4.67876 16.3828C4.55781 16.9669 4.50902 17.2689 4.69338 17.4335C4.88994 17.609 5.22193 17.5122 5.88553 17.3182L6.05715 17.268C6.24578 17.2129 6.34041 17.1854 6.43582 17.1976C6.53173 17.2091 6.61818 17.2591 6.79132 17.3587L6.94869 17.4496C7.55738 17.801 7.86186 17.9765 8.08853 17.8531C8.31521 17.7298 8.31421 17.3893 8.31182 16.708L8.31124 16.5316C8.31072 16.3376 8.31002 16.2408 8.34878 16.1563C8.38741 16.0712 8.46042 16.0077 8.60644 15.8807L8.73944 15.7651C9.25332 15.3182 9.51026 15.0947 9.45374 14.8431C9.39748 14.5911 9.06492 14.4773 8.39968 14.2506L8.22782 14.1916C8.03854 14.1272 7.94435 14.0948 7.87232 14.0305C7.80029 13.9662 7.75878 13.8768 7.67588 13.6985L7.60058 13.5363C7.30971 12.9087 7.16428 12.5949 6.90227 12.5626C6.64128 12.5305 6.43647 12.8006 6.02774 13.342L5.92196 13.4818C5.80572 13.6357 5.74773 13.7124 5.66468 13.7576C5.58188 13.8024 5.48308 13.8112 5.28601 13.828ZM7.37947 18.462C7.23689 19.5504 7.42028 20.6564 8.00986 21.4181C6.00671 20.5084 5.10265 19.3322 4.80143 18.2069C4.95165 18.2266 5.09344 18.2164 5.20975 18.2004C5.45132 18.1666 5.74238 18.0814 6.03818 17.9949L6.25098 17.9326L6.35009 17.9041C6.376 17.9185 6.40652 17.9359 6.44513 17.9587L6.63943 18.0707C6.90171 18.2222 7.15783 18.3695 7.37947 18.462Z" fill="#9987FF"/>
</g>
<g clip-path="url(#clip3_432_373)">
<path d="M28.1538 1.26923L29.148 3.70616L31.7753 3.90077L29.7615 5.60154L30.3918 8.15693L28.1538 6.76924L25.9157 8.15693L26.5461 5.60154L24.5322 3.90077L27.1595 3.70616L28.1538 1.26923Z" fill="#9987FF" stroke="#9987FF" stroke-width="2" stroke-linecap="round" stroke-linejoin="round"/>
</g>
<path d="M22.9858 21.4925C26.8671 18.0461 29.8744 13.5183 28.111 11.5324C27.5517 10.9029 26.7707 10.6109 25.9321 10.7006C25.2281 10.7776 24.5047 11.1254 23.7753 11.7092C22.6287 11.1152 21.349 10.8253 20.0583 10.867C18.7677 10.9088 17.5094 11.2809 16.4036 11.9479C15.544 12.4568 14.794 13.1314 14.1972 13.9324C13.6003 14.7335 13.1685 15.6451 12.9268 16.6144C12.55 18.1074 12.6403 19.6801 13.1857 21.1202C12.2845 22.1381 11.4477 24.2315 12.4893 25.4042C12.9268 25.8959 13.5529 26.1159 14.306 26.1159C16.5965 26.1159 20.0666 24.0859 22.9858 21.4925ZM26.1158 12.3819C26.4187 12.3532 26.6505 12.4361 26.8443 12.6552C27.0398 12.8761 26.9873 13.4557 26.6311 14.2875C26.2484 13.7051 25.7881 13.1776 25.2628 12.7195C25.6275 12.4979 25.9195 12.4039 26.1158 12.3819ZM14.0741 22.7922C14.4504 23.3379 14.8964 23.832 15.4009 24.2619C14.5336 24.5183 13.9506 24.5014 13.7551 24.2797C13.5715 24.0741 13.7568 23.3752 14.0741 22.7922ZM27.8749 17.8261C26.8468 19.3466 25.416 20.9323 23.832 22.3386C22.1955 23.7932 20.3915 25.0531 18.7128 25.8942C19.2337 26.0088 19.7651 26.0689 20.2985 26.0736C21.6746 26.0721 23.0245 25.6972 24.2043 24.9888C25.4299 24.2632 26.4251 23.2054 27.0747 21.9379C27.7243 20.6703 28.0017 19.2447 27.8749 17.8261Z" fill="#9987FF"/>
<path d="M45.8614 17.296C45.68 17.296 45.536 17.2267 45.4294 17.088C45.3334 16.9387 45.2854 16.7413 45.2854 16.496C45.2854 15.952 45.5094 15.68 45.9574 15.68H47.6534C48.048 15.68 48.3254 15.568 48.4854 15.344C48.656 15.12 48.7414 14.8747 48.7414 14.608V11.984C48.7414 11.7173 48.656 11.472 48.4854 11.248C48.3254 11.024 48.048 10.912 47.6534 10.912H44.2934V21.36C44.2934 21.872 43.9734 22.128 43.3334 22.128C42.7147 22.128 42.4054 21.872 42.4054 21.36V10.256C42.4054 9.872 42.5014 9.616 42.6934 9.488C42.8854 9.36 43.12 9.296 43.3974 9.296H48.0694C48.336 9.296 48.6187 9.35467 48.9174 9.472C49.216 9.58933 49.504 9.73867 49.7814 9.92H49.7654C50.0427 10.1227 50.256 10.3893 50.4054 10.72C50.5547 11.04 50.6294 11.4133 50.6294 11.84V14.736C50.6294 15.6 50.3414 16.2453 49.7654 16.672C49.488 16.8747 49.2054 17.0293 48.9174 17.136C48.6294 17.2427 48.3467 17.296 48.0694 17.296H45.8614ZM54.7413 21.376C54.7413 21.8773 54.4479 22.128 53.8613 22.128C53.2639 22.128 52.9653 21.8773 52.9653 21.376V9.904C52.9653 9.40267 53.2639 9.152 53.8613 9.152C54.4479 9.152 54.7413 9.40267 54.7413 9.904V21.376ZM59.3645 22C59.0338 22 58.7192 21.9573 58.4205 21.872C58.1218 21.776 57.8338 21.6427 57.5565 21.472V21.488C57.0338 21.1573 56.7725 20.5493 56.7725 19.664V18.88C56.7725 18.4427 56.8472 18.064 56.9965 17.744C57.1565 17.4133 57.3752 17.152 57.6525 16.96H57.6365C57.9032 16.7787 58.1858 16.6453 58.4845 16.56C58.7832 16.464 59.0712 16.416 59.3485 16.416H62.8845V14.928C62.8845 14.6613 62.7992 14.4213 62.6285 14.208C62.4685 13.984 62.1912 13.872 61.7965 13.872H59.9245C59.5192 13.872 59.2365 13.9733 59.0765 14.176C58.9272 14.368 58.8525 14.5973 58.8525 14.864V14.992C58.8525 15.5467 58.5538 15.824 57.9565 15.824C57.3592 15.824 57.0605 15.5467 57.0605 14.992V14.848C57.0605 14.4107 57.1352 14.0427 57.2845 13.744C57.4445 13.4453 57.6578 13.1947 57.9245 12.992H57.9085C58.1858 12.8107 58.4738 12.6613 58.7725 12.544C59.0818 12.4267 59.3752 12.368 59.6525 12.368H62.0845C62.3512 12.368 62.6338 12.4267 62.9325 12.544C63.2418 12.6613 63.5298 12.8107 63.7965 12.992H63.7805C64.0578 13.1947 64.2712 13.4613 64.4205 13.792C64.5698 14.112 64.6445 14.4853 64.6445 14.912V21.328C64.6445 21.84 64.3512 22.096 63.7645 22.096C63.6472 22.096 63.5352 22.0907 63.4285 22.08C63.3325 22.0693 63.2418 22.0427 63.1565 22C63.0818 21.9467 63.0178 21.8773 62.9645 21.792C62.9218 21.696 62.9005 21.5733 62.9005 21.424L62.8845 17.92H59.6525C59.4178 17.92 59.2365 17.9467 59.1085 18C58.9805 18.0533 58.8792 18.1387 58.8045 18.256C58.7192 18.4373 58.6552 18.5813 58.6125 18.688C58.5805 18.784 58.5645 18.896 58.5645 19.024V19.648C58.5645 19.9253 58.6445 20.1387 58.8045 20.288C58.9752 20.4267 59.2632 20.496 59.6685 20.496H61.4605C61.8552 20.496 62.0525 20.7467 62.0525 21.248C62.0525 21.4613 62.0045 21.6427 61.9085 21.792C61.8125 21.9307 61.6632 22 61.4605 22H59.3645ZM68.4741 21.328C68.4741 21.84 68.1808 22.096 67.5941 22.096C67.0075 22.096 66.7141 21.84 66.7141 21.328V14.896C66.7141 14.4587 66.7835 14.08 66.9221 13.76C67.0608 13.44 67.2795 13.1787 67.5781 12.976C68.1435 12.5707 68.7088 12.368 69.2741 12.368H71.8501C72.3941 12.368 72.9595 12.5707 73.5461 12.976C74.1221 13.3813 74.4101 14.0213 74.4101 14.896V21.328C74.4101 21.84 74.1168 22.096 73.5301 22.096C72.9435 22.096 72.6501 21.84 72.6501 21.328V15.04C72.6501 14.7627 72.5648 14.496 72.3941 14.24L72.4101 14.256C72.2715 14 71.9888 13.872 71.5621 13.872H69.5621C69.1248 13.872 68.8368 14 68.6981 14.256C68.5488 14.48 68.4741 14.7413 68.4741 15.04V21.328ZM78.2398 19.44C78.2398 19.696 78.3198 19.936 78.4798 20.16C78.6504 20.384 78.9331 20.496 79.3278 20.496H81.3278C81.7224 20.496 81.9998 20.4 82.1598 20.208C82.3304 20.0053 82.4158 19.776 82.4158 19.52V19.344C82.4158 18.8427 82.7091 18.592 83.2958 18.592C83.8824 18.592 84.1758 18.8427 84.1758 19.344V19.536C84.1758 19.984 84.1011 20.352 83.9518 20.64C83.8131 20.928 83.5998 21.1787 83.3118 21.392C82.7464 21.7973 82.1811 22 81.6158 22H78.9278C78.3624 22 77.8131 21.7973 77.2798 21.392C77.0238 21.1787 76.8264 20.912 76.6878 20.592C76.5491 20.2613 76.4798 19.8827 76.4798 19.456V14.896C76.4798 14.032 76.7464 13.392 77.2798 12.976C77.5464 12.784 77.8184 12.6347 78.0958 12.528C78.3838 12.4107 78.6611 12.352 78.9278 12.352H81.6158C81.8718 12.352 82.1544 12.4053 82.4638 12.512C82.7731 12.608 83.0611 12.7413 83.3278 12.912C83.5838 13.0933 83.7864 13.344 83.9358 13.664C84.0958 13.984 84.1758 14.3627 84.1758 14.8V16.96C84.1758 17.2053 84.1011 17.424 83.9518 17.616C83.8131 17.808 83.5518 17.904 83.1678 17.904H79.7118C79.3278 17.904 79.1251 17.6533 79.1038 17.152C79.1038 16.6507 79.3064 16.4 79.7118 16.4H82.4318L82.4158 14.912C82.4158 14.6453 82.3304 14.4053 82.1598 14.192C81.9998 13.968 81.7224 13.856 81.3278 13.856H79.3278C78.9331 13.856 78.6504 13.968 78.4798 14.192C78.3198 14.4053 78.2398 14.6453 78.2398 14.912V19.44ZM88.3101 13.872V19.696C88.3101 19.9733 88.3688 20.1867 88.4861 20.336C88.6035 20.4853 88.8541 20.56 89.2381 20.56H89.6541C90.0701 20.56 90.2675 20.8053 90.2461 21.296C90.2461 21.7973 90.0488 22.048 89.6541 22.048H89.1261C88.7848 22.048 88.4648 22.0053 88.1661 21.92C87.8675 21.824 87.5795 21.6907 87.3021 21.52V21.536C86.7795 21.1947 86.5181 20.5867 86.5181 19.712V13.872H85.8941C85.5101 13.872 85.3075 13.6213 85.2861 13.12C85.2861 12.6187 85.4888 12.368 85.8941 12.368H86.5181V10.656C86.5181 10.144 86.8221 9.888 87.4301 9.888C88.0168 9.888 88.3101 10.144 88.3101 10.656V12.368H89.6381C90.0541 12.368 90.2515 12.6187 90.2301 13.12C90.2301 13.6213 90.0328 13.872 89.6381 13.872H88.3101ZM95.252 17.296C95.0707 17.296 94.9267 17.2267 94.82 17.088C94.724 16.9387 94.676 16.7413 94.676 16.496C94.676 15.952 94.9 15.68 95.348 15.68H97.044C97.4387 15.68 97.716 15.568 97.876 15.344C98.0467 15.12 98.132 14.8747 98.132 14.608V11.984C98.132 11.7173 98.0467 11.472 97.876 11.248C97.716 11.024 97.4387 10.912 97.044 10.912H93.684V21.36C93.684 21.872 93.364 22.128 92.724 22.128C92.1053 22.128 91.796 21.872 91.796 21.36V10.256C91.796 9.872 91.892 9.616 92.084 9.488C92.276 9.36 92.5107 9.296 92.788 9.296H97.46C97.7267 9.296 98.0093 9.35467 98.308 9.472C98.6067 9.58933 98.8947 9.73867 99.172 9.92H99.156C99.4333 10.1227 99.6467 10.3893 99.796 10.72C99.9453 11.04 100.02 11.4133 100.02 11.84V14.736C100.02 15.6 99.732 16.2453 99.156 16.672C98.8787 16.8747 98.596 17.0293 98.308 17.136C98.02 17.2427 97.7373 17.296 97.46 17.296H95.252ZM104.132 21.376C104.132 21.8773 103.839 22.128 103.252 22.128C102.655 22.128 102.356 21.8773 102.356 21.376V9.904C102.356 9.40267 102.655 9.152 103.252 9.152C103.839 9.152 104.132 9.40267 104.132 9.904V21.376ZM108.755 22C108.424 22 108.11 21.9573 107.811 21.872C107.512 21.776 107.224 21.6427 106.947 21.472V21.488C106.424 21.1573 106.163 20.5493 106.163 19.664V18.88C106.163 18.4427 106.238 18.064 106.387 17.744C106.547 17.4133 106.766 17.152 107.043 16.96H107.027C107.294 16.7787 107.576 16.6453 107.875 16.56C108.174 16.464 108.462 16.416 108.739 16.416H112.275V14.928C112.275 14.6613 112.19 14.4213 112.019 14.208C111.859 13.984 111.582 13.872 111.187 13.872H109.315C108.91 13.872 108.627 13.9733 108.467 14.176C108.318 14.368 108.243 14.5973 108.243 14.864V14.992C108.243 15.5467 107.944 15.824 107.347 15.824C106.75 15.824 106.451 15.5467 106.451 14.992V14.848C106.451 14.4107 106.526 14.0427 106.675 13.744C106.835 13.4453 107.048 13.1947 107.315 12.992H107.299C107.576 12.8107 107.864 12.6613 108.163 12.544C108.472 12.4267 108.766 12.368 109.043 12.368H111.475C111.742 12.368 112.024 12.4267 112.323 12.544C112.632 12.6613 112.92 12.8107 113.187 12.992H113.171C113.448 13.1947 113.662 13.4613 113.811 13.792C113.96 14.112 114.035 14.4853 114.035 14.912V21.328C114.035 21.84 113.742 22.096 113.155 22.096C113.038 22.096 112.926 22.0907 112.819 22.08C112.723 22.0693 112.632 22.0427 112.547 22C112.472 21.9467 112.408 21.8773 112.355 21.792C112.312 21.696 112.291 21.5733 112.291 21.424L112.275 17.92H109.043C108.808 17.92 108.627 17.9467 108.499 18C108.371 18.0533 108.27 18.1387 108.195 18.256C108.11 18.4373 108.046 18.5813 108.003 18.688C107.971 18.784 107.955 18.896 107.955 19.024V19.648C107.955 19.9253 108.035 20.1387 108.195 20.288C108.366 20.4267 108.654 20.496 109.059 20.496H110.851C111.246 20.496 111.443 20.7467 111.443 21.248C111.443 21.4613 111.395 21.6427 111.299 21.792C111.203 21.9307 111.054 22 110.851 22H108.755ZM116.617 24.24C116.243 24.24 116.046 23.9893 116.025 23.488C116.025 22.9867 116.222 22.736 116.617 22.736H117.321C117.694 22.736 117.939 22.624 118.057 22.4L118.281 21.808L118.361 21.552L115.241 13.376V13.392C115.155 13.136 115.171 12.9173 115.289 12.736C115.417 12.5547 115.609 12.4213 115.865 12.336C116.057 12.2827 116.211 12.256 116.329 12.256C116.638 12.256 116.83 12.4373 116.905 12.8L118.169 15.952L119.241 18.576L120.953 12.832C121.049 12.448 121.273 12.256 121.625 12.256C121.71 12.256 121.849 12.2827 122.041 12.336C122.297 12.4107 122.478 12.5333 122.585 12.704C122.702 12.8747 122.729 13.0773 122.665 13.312C122.185 14.944 121.694 16.5867 121.193 18.24C120.702 19.8933 120.217 21.5307 119.737 23.152C119.683 23.2693 119.598 23.3867 119.481 23.504C119.374 23.632 119.23 23.7493 119.049 23.856C118.867 23.9733 118.643 24.064 118.377 24.128C118.11 24.2027 117.801 24.24 117.449 24.24H116.617Z" fill="#9987FF"/>
<defs>
<clipPath id="clip0_432_373">
<rect width="5.53846" height="5.53846" fill="white" transform="translate(30.4617 10.1538)"/>
</clipPath>
<clipPath id="clip1_432_373">
<rect width="3.69231" height="3.69231" fill="white" transform="translate(19.3845 6.46154)"/>
</clipPath>
<clipPath id="clip2_432_373">
<rect width="11.0769" height="11.0769" fill="white" transform="translate(0 18.4677) rotate(-56.5)"/>
</clipPath>
<clipPath id="clip3_432_373">
<rect width="10.1538" height="10.1538" fill="white" transform="translate(23.0769)"/>
</clipPath>
</defs>
</svg>
