<svg width="95" height="95" viewBox="0 0 95 95" fill="none" xmlns="http://www.w3.org/2000/svg">
<path d="M44.2938 8.90625C43.2646 8.90625 42.2354 9.14375 41.2458 9.5L12.1125 21.5729C10.1759 22.366 8.63356 23.8956 7.82448 25.8255C7.01541 27.7554 7.00585 29.9276 7.79791 31.8646L27.4313 79.1667C28.0112 80.6014 28.9989 81.8347 30.2722 82.7141C31.5456 83.5935 33.0487 84.0804 34.5958 84.1146C35.625 84.1146 36.6938 83.9958 37.7229 83.5208L66.8959 71.4479C68.3039 70.8504 69.511 69.8615 70.374 68.5986C71.2369 67.3357 71.7196 65.8518 71.7646 64.3229C71.8042 63.3333 71.6063 62.1854 71.25 61.1563L51.4584 13.8542C50.8989 12.4055 49.9163 11.1588 48.6384 10.2763C47.3606 9.39381 45.8467 8.91641 44.2938 8.90625ZM58.0688 8.90625L71.725 41.9583V16.8229C71.725 14.7233 70.891 12.7097 69.4063 11.225C67.9216 9.74032 65.908 8.90625 63.8084 8.90625M79.6813 15.0021V50.7458L89.3 27.55C89.6944 26.5912 89.8956 25.5639 89.8921 24.5271C89.8885 23.4904 89.6804 22.4645 89.2795 21.5084C88.8787 20.5522 88.293 19.6846 87.5562 18.9553C86.8193 18.226 85.9457 17.6493 84.9855 17.2583M44.2938 16.7042L64.0063 64.2833L34.7542 76.3958L15.0417 28.8563" fill="#242131"/>
</svg>
