<svg width="95" height="95" viewBox="0 0 95 95" fill="none" xmlns="http://www.w3.org/2000/svg">
<path d="M69.9231 43.3548C71.6031 43.3548 73.1723 44.0284 74.4646 45.1711C76.9985 46.7133 78 45.0132 78 43.3548V35.2258C78 31.3935 74.8846 28.2581 71.0769 28.2581H58.3846C56.7415 28.2581 55.0431 27.2547 56.58 24.6999C57.7154 23.3992 58.3846 21.8245 58.3846 20.129C58.3846 15.6372 53.7369 12 48 12C42.2631 12 37.6154 15.6372 37.6154 20.129C37.6154 21.5226 38.0538 22.8046 38.7923 23.952C41.1323 27.0782 39.42 28.2581 37.6154 28.2581H24.9231C21.1154 28.2581 18 31.3935 18 35.2258V43.3548C18 45.1711 19.1723 46.8945 22.2831 44.4883C23.4185 43.7961 24.6923 43.3548 26.0769 43.3548C30.5354 43.3548 34.1538 48.0372 34.1538 53.8065C34.1538 59.5757 30.5354 64.2581 26.0769 64.2581C24.3969 64.2581 22.8277 63.5845 21.5354 62.4418C19.0015 60.8996 18 62.5997 18 64.2581V77.0323C18 80.8645 21.1154 84 24.9231 84H37.6154C39.42 84 41.1323 82.8201 38.7369 79.6939C38.0227 78.5469 37.6347 77.2245 37.6154 75.871C37.6154 71.3791 42.2631 67.7419 48 67.7419C53.7369 67.7419 58.3846 71.3791 58.3846 75.871C58.3846 77.5664 57.7154 79.1412 56.58 80.4418C55.0431 82.9966 56.7415 84 58.3846 84H71.0769C74.8846 84 78 80.8645 78 77.0323V64.2581C78 62.4418 76.8277 60.7184 73.7169 63.1246C72.5804 63.8474 71.2674 64.2397 69.9231 64.2581C65.4646 64.2581 61.8462 59.5757 61.8462 53.8065C61.8462 48.0372 65.4646 43.3548 69.9231 43.3548Z" fill="#242131"/>
</svg>
