<svg width="95" height="95" viewBox="0 0 95 95" fill="none" xmlns="http://www.w3.org/2000/svg">
<path d="M33.7824 14.344C33.855 13.9761 33.853 13.5974 33.7766 13.2303C33.7002 12.8632 33.5508 12.5152 33.3374 12.2068C33.124 11.8985 32.8508 11.6362 32.5341 11.4354C32.2174 11.2346 31.8636 11.0995 31.4938 11.038C31.1239 10.9764 30.7454 10.9898 30.3807 11.0773C30.0161 11.1647 29.6728 11.3245 29.371 11.5471C29.0693 11.7697 28.8153 12.0507 28.6242 12.3733C28.433 12.6959 28.3086 13.0536 28.2582 13.4251L17.0531 80.656C16.9804 81.0239 16.9824 81.4026 17.0588 81.7697C17.1352 82.1368 17.2846 82.4848 17.498 82.7932C17.7115 83.1015 17.9846 83.3638 18.3013 83.5646C18.618 83.7654 18.9718 83.9005 19.3417 83.962C19.7116 84.0236 20.09 84.0102 20.4547 83.9227C20.8193 83.8353 21.1627 83.6755 21.4644 83.4529C21.7661 83.2302 22.0201 82.9493 22.2113 82.6267C22.4024 82.3041 22.5269 81.9464 22.5772 81.5749L26.3309 59.0525C30.8466 59.7136 35.7264 59.9321 39.5698 62.6269C41.9477 64.3357 44.6975 65.4552 47.5927 65.8933C53.0048 66.7112 57.8454 63.7363 63.1903 64.5822L70.412 65.6691C71.8687 65.8933 73.3814 64.7727 73.5999 63.3161L78.5525 30.0704L78.5749 30.048C78.651 29.3161 78.4463 28.5827 78.0022 27.9961C77.558 27.4095 76.9077 27.0134 76.1826 26.8881L68.9609 25.8012C63.5656 25.0001 58.7138 27.891 53.369 27.0898C50.9718 26.7258 48.6916 25.811 46.7075 24.4174C42.5672 21.5209 37.6369 21.039 32.7795 20.3555L33.788 14.3384L33.7824 14.344ZM30.4768 34.1659L32.3257 23.1176C35.6816 23.577 39.2337 23.8403 42.3431 25.1849L40.6903 36.194C37.4969 34.8886 33.8888 34.6365 30.4768 34.1659ZM26.7959 56.296L28.6448 45.2366C32.1184 45.7184 35.7993 45.9649 39.0544 47.2983L40.7352 36.2276C44.4216 37.7403 47.2285 40.3343 51.3408 40.9394L53.0216 29.8463C57.1563 30.4682 60.5795 28.8546 64.5517 28.5353L62.8709 39.5499C58.8931 39.8861 55.4531 41.5669 51.3296 40.9506L49.7273 52.0325C45.6038 51.4162 42.7913 48.811 39.088 47.3039L37.4072 58.3746C34.0737 57.0356 30.3312 56.8003 26.7959 56.296ZM49.7329 52.0381C53.8452 52.6544 57.302 50.9624 61.2798 50.6318L62.8709 39.5499C66.5406 39.2138 70.2943 40.1718 73.8968 40.7209L72.3281 51.7916C68.72 51.2481 64.9551 50.2845 61.2854 50.6318L59.6046 61.7025C55.6324 61.9714 52.1252 63.7195 48.0521 63.1032L49.7273 52.0325L49.7329 52.0381Z" fill="#242131"/>
</svg>
