<svg width="95" height="95" viewBox="0 0 95 95" fill="none" xmlns="http://www.w3.org/2000/svg">
<path d="M72.8571 37.3571L81.6409 42.4286L79.1051 46.8204L70.3214 41.749L72.8571 37.3571ZM72.8571 27.2143H83V32.2857H72.8571V27.2143ZM24.6786 41.749L15.8949 46.8204L13.3591 42.4286L22.1429 37.3571L24.6786 41.749ZM72.8571 83H67.7857V70.3214C67.7817 66.9601 66.4446 63.7376 64.0678 61.3608C61.691 58.984 58.4685 57.6469 55.1071 57.6429H39.8929C36.5315 57.6469 33.309 58.984 30.9322 61.3608C28.5554 63.7376 27.2183 66.9601 27.2143 70.3214V83H22.1429V70.3214C22.1482 65.6155 24.02 61.1038 27.3476 57.7762C30.6753 54.4486 35.1869 52.5768 39.8929 52.5714H55.1071C59.8131 52.5768 64.3248 54.4486 67.6524 57.7762C70.98 61.1038 72.8518 65.6155 72.8571 70.3214V83ZM47.5 17.0714C50.0076 17.0714 52.4589 17.815 54.5438 19.2082C56.6288 20.6013 58.2539 22.5814 59.2135 24.8981C60.1731 27.2148 60.4242 29.7641 59.935 32.2235C59.4458 34.6829 58.2382 36.942 56.4651 38.7151C54.692 40.4882 52.4329 41.6958 49.9735 42.185C47.5141 42.6742 44.9648 42.4231 42.6481 41.4635C40.3314 40.5039 38.3513 38.8788 36.9582 36.7938C35.565 34.7089 34.8214 32.2576 34.8214 29.75C34.8214 26.3874 36.1572 23.1626 38.5349 20.7849C40.9126 18.4072 44.1374 17.0714 47.5 17.0714ZM47.5 12C43.9894 12 40.5576 13.041 37.6386 14.9914C34.7197 16.9418 32.4446 19.714 31.1011 22.9574C29.7577 26.2008 29.4062 29.7697 30.0911 33.2129C30.776 36.656 32.4665 39.8188 34.9489 42.3011C37.4312 44.7835 40.594 46.4741 44.0371 47.1589C47.4803 47.8438 51.0492 47.4923 54.2926 46.1489C57.536 44.8054 60.3082 42.5303 62.2586 39.6114C64.209 36.6924 65.25 33.2606 65.25 29.75C65.25 25.0424 63.3799 20.5276 60.0511 17.1989C56.7224 13.8701 52.2076 12 47.5 12ZM70.3214 17.751L79.1051 12.6796L81.6409 17.0714L72.8571 22.1429L70.3214 17.751ZM12 27.2143H22.1429V32.2857H12V27.2143ZM22.1429 22.1429L13.3591 17.0714L15.8949 12.6796L24.6786 17.751L22.1429 22.1429Z" fill="#242131"/>
</svg>
