<svg width="95" height="95" viewBox="0 0 95 95" fill="none" xmlns="http://www.w3.org/2000/svg">
<path d="M26.7187 53.4375C23.7829 53.4375 20.913 54.3081 18.472 55.9391C16.0309 57.5702 14.1284 59.8885 13.0049 62.6008C11.8814 65.3131 11.5875 68.2977 12.1602 71.1771C12.733 74.0565 14.1467 76.7014 16.2226 78.7774C18.2986 80.8533 20.9435 82.267 23.8229 82.8398C26.7023 83.4125 29.6868 83.1186 32.3992 81.9951C35.1115 80.8716 37.4298 78.969 39.0609 76.528C40.6919 74.087 41.5625 71.2171 41.5625 68.2812C41.5625 66.3319 41.1785 64.4017 40.4326 62.6008C39.6866 60.7999 38.5932 59.1635 37.2149 57.7851C35.8365 56.4068 34.2001 55.3134 32.3992 54.5674C30.5983 53.8214 28.668 53.4375 26.7187 53.4375ZM26.7187 74.2188C25.5444 74.2188 24.3965 73.8705 23.42 73.2181C22.4436 72.5657 21.6826 71.6384 21.2332 70.5534C20.7838 69.4685 20.6662 68.2747 20.8953 67.1229C21.1244 65.9711 21.6899 64.9132 22.5203 64.0828C23.3507 63.2524 24.4086 62.6869 25.5604 62.4578C26.7121 62.2287 27.906 62.3463 28.9909 62.7957C30.0759 63.2451 31.0032 64.0061 31.6556 64.9825C32.308 65.959 32.6562 67.1069 32.6562 68.2812C32.6562 69.856 32.0307 71.3662 30.9172 72.4797C29.8037 73.5932 28.2935 74.2188 26.7187 74.2188ZM14.8437 47.5C13.9625 47.5007 13.1008 47.2399 12.3679 46.7506C11.6349 46.2614 11.0636 45.5656 10.7263 44.7515C10.3889 43.9374 10.3007 43.0414 10.4729 42.1771C10.645 41.3129 11.0697 40.5191 11.6931 39.8963L15.957 35.625L11.6931 31.3537C10.8566 30.5171 10.3866 29.3825 10.3866 28.1994C10.3866 27.6136 10.502 27.0335 10.7262 26.4923C10.9503 25.9511 11.2789 25.4593 11.6931 25.0451C12.1074 24.6309 12.5991 24.3023 13.1404 24.0781C13.6816 23.8539 14.2616 23.7386 14.8474 23.7386C16.0305 23.7386 17.1652 24.2085 18.0017 25.0451L22.2656 29.3164L26.5369 25.0525C27.3735 24.216 28.5081 23.746 29.6912 23.746C30.8743 23.746 32.0089 24.216 32.8455 25.0525C33.6821 25.8891 34.152 27.0237 34.152 28.2068C34.152 29.3899 33.6821 30.5246 32.8455 31.3611L28.5742 35.625L32.8492 39.8963C33.6858 40.7329 34.1558 41.8675 34.1558 43.0506C34.1558 44.2337 33.6858 45.3683 32.8492 46.2049C32.0126 47.0415 30.878 47.5114 29.6949 47.5114C28.5118 47.5114 27.3772 47.0415 26.5406 46.2049L22.2656 41.9336L17.9943 46.1975C17.5805 46.6109 17.0892 46.9387 16.5486 47.1622C16.008 47.3857 15.4287 47.5005 14.8437 47.5ZM83.3068 75.5213C84.1434 76.3579 84.6134 77.4925 84.6134 78.6756C84.6134 79.8587 84.1434 80.9933 83.3068 81.8299C82.4702 82.6665 81.3356 83.1364 80.1525 83.1364C78.9694 83.1364 77.8348 82.6665 76.9982 81.8299L72.7344 77.5586L68.4631 81.8336C67.6265 82.6702 66.4919 83.1401 65.3088 83.1401C64.1257 83.1401 62.991 82.6702 62.1545 81.8336C61.3179 80.997 60.8479 79.8624 60.8479 78.6793C60.8479 77.4962 61.3179 76.3616 62.1545 75.525L66.4258 71.25L62.1508 66.9787C61.3142 66.1421 60.8442 65.0075 60.8442 63.8244C60.8442 62.6413 61.3142 61.5067 62.1508 60.6701C62.9873 59.8335 64.122 59.3636 65.3051 59.3636C66.4881 59.3636 67.6228 59.8335 68.4594 60.6701L72.7344 64.9414L77.0056 60.6664C77.8422 59.8298 78.9768 59.3599 80.1599 59.3599C81.343 59.3599 82.4777 59.8298 83.3142 60.6664C84.1508 61.503 84.6208 62.6376 84.6208 63.8207C84.6208 65.0038 84.1508 66.1384 83.3142 66.975L79.0429 71.25L83.3068 75.5213ZM67.2013 41.1506C65.2679 49.6857 58.5437 57.3043 50.4687 60.158C49.3551 60.5517 48.1307 60.4869 47.0649 59.9778C45.9991 59.4687 45.1791 58.5571 44.7854 57.4435C44.3918 56.3298 44.4566 55.1054 44.9657 54.0396C45.4747 52.9738 46.3864 52.1538 47.5 51.7602C52.7213 49.9047 57.2486 44.7428 58.5103 39.1801C59.3898 35.2984 58.6588 31.4465 56.4025 27.8469V31.1867C56.4025 32.3678 55.9334 33.5004 55.0982 34.3356C54.2631 35.1707 53.1304 35.6398 51.9494 35.6398C50.7684 35.6398 49.6357 35.1707 48.8006 34.3356C47.9654 33.5004 47.4963 32.3678 47.4963 31.1867V16.3281C47.4963 15.1471 47.9654 14.0144 48.8006 13.1793C49.6357 12.3442 50.7684 11.875 51.9494 11.875H66.7931C67.9742 11.875 69.1069 12.3442 69.942 13.1793C70.7771 14.0144 71.2463 15.1471 71.2463 16.3281C71.2463 17.5092 70.7771 18.6418 69.942 19.477C69.1069 20.3121 67.9742 20.7812 66.7931 20.7812H62.3437C67.0826 26.9451 68.8082 34.0516 67.2013 41.1506Z" fill="#242131"/>
</svg>
