<svg width="95" height="95" viewBox="0 0 95 95" fill="none" xmlns="http://www.w3.org/2000/svg">
<path d="M11.875 47.5C11.875 52.1783 12.7965 56.8109 14.5868 61.1331C16.3771 65.4553 19.0012 69.3826 22.3093 72.6907C25.6174 75.9988 29.5447 78.6229 33.8669 80.4132C38.1891 82.2035 42.8217 83.125 47.5 83.125M11.875 47.5C11.875 42.8217 12.7965 38.1891 14.5868 33.8669C16.3771 29.5447 19.0012 25.6174 22.3093 22.3093C25.6174 19.0012 29.5447 16.3771 33.8669 14.5868C38.1891 12.7965 42.8217 11.875 47.5 11.875M11.875 47.5H27.7083M47.5 83.125C52.1783 83.125 56.8109 82.2035 61.1331 80.4132C65.4553 78.6229 69.3826 75.9988 72.6907 72.6907C75.9988 69.3826 78.6229 65.4553 80.4132 61.1331C82.2035 56.8109 83.125 52.1783 83.125 47.5M47.5 83.125V71.25M83.125 47.5C83.125 42.8217 82.2035 38.1891 80.4132 33.8669C78.6229 29.5447 75.9988 25.6174 72.6907 22.3093C69.3826 19.0012 65.4553 16.3771 61.1331 14.5868C56.8109 12.7965 52.1783 11.875 47.5 11.875M83.125 47.5H71.25M47.5 11.875V27.7083M47.5 47.5V47.5396" stroke="#242131" stroke-width="5" stroke-linecap="round" stroke-linejoin="round"/>
</svg>
